<svg id="Capa_1" enable-background="new 0 0 512.002 512.002" height="512" viewBox="0 0 512.002 512.002" width="512" xmlns="http://www.w3.org/2000/svg"><g><g><path d="m156.001 10.001h200v246h-200z" fill="#d8ec84"/><path d="m256.001 156.001c-33.14 0-60 35.82-60 80 0 6.91.66 13.61 1.89 20h116.22c1.23-6.39 1.89-13.09 1.89-20 0-44.18-26.86-80-60-80z" fill="#fff"/><path d="m96.001 256.001h320v246h-320z" fill="#ff7b79"/><path d="m296.001 309.001c23.68 0 40 20.07 40 43.84 0 32.88-32.55 54.65-80 96.16-47.45-41.51-80-63.28-80-96.16 0-23.77 16.32-43.84 40-43.84 30.4 0 40 35 40 35s9.6-35 40-35z" fill="#fce8d0"/><path d="m276.001 236.001c0 7.29-.97 14.12-2.68 20h-34.64c-1.71-5.88-2.68-12.71-2.68-20 0-22.09 8.95-40 20-40s20 17.91 20 40z" fill="#d8ec84"/><circle cx="256.001" cy="96.001" fill="#fff" r="20"/></g><g><path d="m346.001 352.841c0-29.526-20.947-53.84-50-53.84-19.864 0-32.464 11.341-40 22.295-7.536-10.954-20.136-22.295-40-22.295-29.057 0-50 24.315-50 53.84 0 32.45 24.976 53.729 62.78 85.939 6.588 5.613 13.4 11.418 20.636 17.747 1.885 1.649 4.234 2.474 6.584 2.474s4.699-.824 6.584-2.474c7.235-6.329 14.048-12.134 20.636-17.747 37.804-32.21 62.78-53.489 62.78-85.939zm-90 82.913c-4.913-4.243-9.636-8.267-14.249-12.197-34.767-29.621-55.751-47.501-55.751-70.716 0-19.292 12.897-33.84 30-33.84 22.274 0 30.044 26.543 30.366 27.683 1.204 4.323 5.143 7.317 9.634 7.317 4.504 0 8.452-3.011 9.644-7.354.076-.277 7.843-27.646 30.356-27.646 17.103 0 30 14.548 30 33.84 0 23.215-20.984 41.095-55.751 70.716-4.613 3.93-9.336 7.954-14.249 12.197z"/><path d="m256.001 126.001c16.542 0 30-13.458 30-30s-13.458-30-30-30-30 13.458-30 30 13.458 30 30 30zm0-40c5.514 0 10 4.486 10 10s-4.486 10-10 10-10-4.486-10-10 4.486-10 10-10z"/><circle cx="256.001" cy="502.001" r="10"/><path d="m366.001 246.001v-236c0-5.522-4.478-10-10-10h-200c-5.522 0-10 4.478-10 10v236h-46.605l-83.307-63.934c-4.381-3.36-10.658-2.536-14.021 1.846-3.362 4.381-2.536 10.658 1.846 14.021l82.088 62.998v241.069c0 5.522 4.478 10 10 10h115c5.522 0 10-4.478 10-10s-4.478-10-10-10h-105v-226h300v226h-105c-5.522 0-10 4.478-10 10s4.478 10 10 10h115c5.522 0 10-4.478 10-10v-241.069l82.088-62.998c4.382-3.363 5.208-9.641 1.846-14.021-3.363-4.383-9.641-5.204-14.021-1.846l-83.307 63.934zm-200-226h180v226h-20.434c.284-3.316.434-6.655.434-10 0-45.248-27.691-90-70-90-42.43 0-70 44.919-70 90 0 3.345.15 6.684.434 10h-20.434zm119.427 226c.372-3.273.573-6.624.573-10 0-28.505-12.897-50-30-50s-30 21.495-30 50c0 3.376.201 6.727.573 10h-20.042c-.342-3.307-.531-6.647-.531-10 0-38.598 22.43-70 50-70s50 31.402 50 70c0 3.353-.189 6.693-.531 10zm-38.692 0c-.479-3.206-.735-6.573-.735-10 0-18.068 7.068-30 10-30 3.029 0 10 12.164 10 30 0 3.427-.256 6.794-.735 10z"/></g></g></svg>